<svg xmlns="http://www.w3.org/2000/svg" width="102" height="42" viewBox="0 0 102 42" fill="none">
    <path
        d="M35.2184 2.91954L31.8161 0L21.5172 12.069L23.7931 2.94253L23.8161 2.91954L20.3908 0L10.1149 12.046L12.3908 2.91954L8.98851 0L0 10.5057L3.42529 13.4253L5.83908 10.5977L3.56322 19.7241L6.96552 22.6437L17.2414 10.6207L14.9425 19.7241H14.9655L18.3908 22.6437L28.6667 10.5977L26.3678 19.7241L30.2759 22.6437L35.2184 2.91954Z"
        fill="#21D685" />
    <path
        d="M55.6325 0L45.3337 12.046L47.6325 2.91954L44.2073 0L35.2188 10.5057L38.644 13.4253L41.0578 10.5977L38.782 19.7241L42.2073 22.6437L47.4256 16.5057L36.4601 38.6437L40.1153 41.3563L59.1498 3.01149L55.6325 0Z"
        fill="#21D685" />
    <path
        d="M59.1504 11.3098C59.1504 9.93052 59.4492 8.59718 60.0469 7.33282C60.6446 6.06845 61.4492 4.965 62.4607 4.02247C63.4722 3.07994 64.6676 2.29833 66.0469 1.72362C67.4263 1.14891 68.8745 0.873047 70.3918 0.873047C71.84 0.873047 73.0814 1.10293 74.1389 1.53971C75.1964 1.9765 76.0699 2.45925 76.7826 3.01098C77.6102 3.63167 78.2998 4.34431 78.8515 5.12592L75.2423 8.64316C74.8975 8.1604 74.4837 7.70063 74.024 7.33282C73.6332 7.01098 73.1274 6.68914 72.5067 6.41328C71.886 6.11443 71.1734 5.9765 70.3918 5.9765C69.6561 5.9765 68.9665 6.11443 68.2998 6.39029C67.6331 6.66615 67.0584 7.05695 66.5297 7.53971C66.024 8.02247 65.6102 8.59719 65.3113 9.24086C65.0125 9.88454 64.8745 10.5742 64.8745 11.3098C64.8745 12.0455 65.0125 12.7351 65.3113 13.3788C65.6102 14.0225 66.001 14.5972 66.5297 15.0799C67.0354 15.5627 67.6331 15.9535 68.2998 16.2294C68.9665 16.5052 69.6561 16.6432 70.3918 16.6432C71.1734 16.6432 71.886 16.5052 72.5067 16.2524C73.1274 15.9995 73.6561 15.7006 74.1159 15.4018C74.6217 15.034 75.0814 14.5972 75.4722 14.1144L78.8745 17.4937C78.2998 18.2753 77.6102 18.988 76.8056 19.6087C76.0929 20.1374 75.2194 20.6432 74.1619 21.0799C73.1044 21.5167 71.863 21.7466 70.4148 21.7466C68.8975 21.7466 67.4492 21.4707 66.0699 20.896C64.6906 20.3213 63.4952 19.5627 62.4837 18.5972C61.4722 17.6547 60.6676 16.5282 60.0699 15.2868C59.4492 14.0225 59.1504 12.7121 59.1504 11.3098Z"
        fill="white" />
    <path
        d="M95.3678 12.4483L87.8046 16.8161C87.023 17.2759 86.0575 16.7011 86.0575 15.8046V7.06897C86.0575 6.17241 87.023 5.5977 87.8046 6.05747L95.3678 10.4253C96.1494 10.8621 96.1494 11.9885 95.3678 12.4483ZM100.126 7.45977C99.5287 6.1954 98.7241 5.09195 97.7356 4.14943C96.7241 3.2069 95.5517 2.42529 94.2184 1.85057C92.8851 1.27586 91.4598 1 90.0115 1C88.5172 1 87.092 1.27586 85.7816 1.85057C84.4483 2.42529 83.2988 3.18391 82.2874 4.14943C81.2759 5.11494 80.4943 6.21839 79.8966 7.45977C79.2988 8.72414 79 10.0345 79 11.4368C79 12.8161 79.2988 14.1494 79.8966 15.4138C80.4943 16.6782 81.2988 17.7816 82.2874 18.7241C83.2988 19.6897 84.4483 20.4483 85.7816 21.023C87.1149 21.5977 88.5172 21.8736 90.0115 21.8736C91.4828 21.8736 92.8851 21.5977 94.2184 21.023C95.5517 20.4483 96.7241 19.6897 97.7356 18.7241C98.7471 17.7816 99.5287 16.6552 100.126 15.4138C100.724 14.1494 101.023 12.8391 101.023 11.4368C101 10.0345 100.701 8.70115 100.126 7.45977Z"
        fill="white" />
</svg>